<svg width="243" height="49" viewBox="0 0 243 49" fill="none" xmlns="http://www.w3.org/2000/svg">
<path d="M46.76 39V11H67.2V15.36H51.96V39H46.76ZM51.52 28.28V23.88H65.48V28.28H51.52ZM69.0578 39L81.6578 11H86.7778L99.4178 39H93.9778L83.1378 13.76H85.2178L74.4178 39H69.0578ZM74.8578 32.52L76.2578 28.44H91.3778L92.7778 32.52H74.8578ZM117.548 39.4C115.415 39.4 113.428 39.0533 111.588 38.36C109.775 37.64 108.188 36.64 106.828 35.36C105.495 34.0533 104.455 32.52 103.708 30.76C102.961 29 102.588 27.08 102.588 25C102.588 22.92 102.961 21 103.708 19.24C104.455 17.48 105.508 15.96 106.868 14.68C108.228 13.3733 109.815 12.3733 111.628 11.68C113.441 10.96 115.428 10.6 117.588 10.6C119.881 10.6 121.975 11 123.868 11.8C125.761 12.5733 127.361 13.7333 128.668 15.28L125.308 18.44C124.295 17.3467 123.161 16.5333 121.908 16C120.655 15.44 119.295 15.16 117.828 15.16C116.361 15.16 115.015 15.4 113.788 15.88C112.588 16.36 111.535 17.04 110.628 17.92C109.748 18.8 109.055 19.84 108.548 21.04C108.068 22.24 107.828 23.56 107.828 25C107.828 26.44 108.068 27.76 108.548 28.96C109.055 30.16 109.748 31.2 110.628 32.08C111.535 32.96 112.588 33.64 113.788 34.12C115.015 34.6 116.361 34.84 117.828 34.84C119.295 34.84 120.655 34.5733 121.908 34.04C123.161 33.48 124.295 32.64 125.308 31.52L128.668 34.72C127.361 36.24 125.761 37.4 123.868 38.2C121.975 39 119.868 39.4 117.548 39.4ZM140.354 39V15.4H131.074V11H154.834V15.4H145.554V39H140.354ZM160.737 39V11H165.937V39H160.737ZM175.51 39V11H195.95V15.36H180.71V39H175.51ZM180.27 28.28V23.88H194.23V28.28H180.27ZM197.808 39L210.408 11H215.528L228.168 39H222.728L211.888 13.76H213.968L203.168 39H197.808ZM203.608 32.52L205.008 28.44H220.128L221.528 32.52H203.608ZM233.729 39V11H238.929V39H233.729Z" fill="white"/>
<path d="M17.5 12.3125H9.16667C8.50363 12.3125 7.86774 12.5693 7.3989 13.0264C6.93006 13.4835 6.66667 14.1035 6.66667 14.75V31.8125H33.3333V26.125" stroke="white" stroke-width="2" stroke-linecap="round" stroke-linejoin="round"/>
<path d="M3.33333 31.8125H36.6667V33.4375C36.6667 34.7304 36.1399 35.9704 35.2022 36.8846C34.2645 37.7989 32.9928 38.3125 31.6667 38.3125H8.33333C7.00725 38.3125 5.73548 37.7989 4.7978 36.8846C3.86012 35.9704 3.33333 34.7304 3.33333 33.4375V31.8125Z" stroke="white" stroke-width="2" stroke-linejoin="round"/>
<path d="M22.0007 11.3284C21.8813 11.3969 21.7846 11.4991 21.723 11.6222C21.6613 11.7453 21.6373 11.8839 21.654 12.0206L22.7118 23.3728C22.7794 23.924 23.4313 24.1809 23.8566 23.8239L25.8467 22.1537L26.8477 23.8876C27.4234 24.8845 28.5795 24.9894 29.5763 24.4137C30.5735 23.838 31.0607 22.7845 30.485 21.7876L29.4875 20.0598L31.8905 19.1855C32.4123 18.9955 32.5157 18.3028 32.0722 17.9686L22.7698 11.3763C22.6603 11.294 22.5291 11.2456 22.3924 11.2371C22.2557 11.2285 22.1196 11.2603 22.0007 11.3284ZM23.2437 13.4856L30.1996 18.3109L27.4397 19.3152L27.4526 19.3352L29.2726 22.4876C29.4725 22.8338 29.2228 23.0014 28.8764 23.2013C28.5301 23.4012 28.2601 23.5338 28.0602 23.1876L26.2402 20.0352L26.2258 20.0075L23.9446 21.9222L23.2437 13.4856Z" fill="white"/>
</svg>
